# xmcd CD database file
#
# Track frame offsets:
#	150
#	18290
#	34688
#	53321
#	69898
#	88412
#	105519
#	119778
#	136884
#	152500
#	176728
#	188989
#
# Disc length: 2731 seconds
#
# Revision: 0
# Processed by: cddbd v1.5.2PL0 Copyright (c) Steve Scherf et al.
# Submitted via: CDex 1.51
#
DISCID=970aa90c
DTITLE=Denai Moore - Elsewhere
DYEAR=2015
DGENRE=Rhythmic Soul
TTITLE0=01 Piano song
TTITLE1=02 Absent
TTITLE2=03 Blame
TTITLE3=04 Detonate
TTITLE4=05 Elsewhere
TTITLE5=06 Flaws
TTITLE6=07 I swore
TTITLE7=08 Feeling
TTITLE8=09 Never gone
TTITLE9=10 No light
TTITLE10=11 Let me go
TTITLE11=12 Last time
EXTD=YEAR: 2015
EXTT0=
EXTT1=
EXTT2=
EXTT3=
EXTT4=
EXTT5=
EXTT6=
EXTT7=
EXTT8=
EXTT9=
EXTT10=
EXTT11=
PLAYORDER=
